# xmcd CD database file generated by freedbAccess_ocx
#
# Track frame offsets:
#       150
#       8573
#       20148
#       32198
#       41576
#       53673
#       64635
#       75084
#       86898
#       99309
#       110253
#       120865
#       134245
#       143510
#       155967
#       166181
#       178132
#       186637
#       196928
#       207167
#       219179
#       228351
#       239640
#       249909
#       260635
#       269768
#       282435
#
# Disc length: 3922 seconds
#
# Revision: 0
# Processed by: cddbd v1.5.2PL0 Copyright (c) Steve Scherf et al.
# Submitted via: CDnGo 1.95
#
DISCID=820f501b
DTITLE=Various Artist - The Best Of X-Tra Records
DYEAR=1999
DGENRE=Doo Wop
TTITLE0=Collegians - Let's Go For A Ride
TTITLE1=Heartspinners - I've Searched
TTITLE2=Youngtones - It's Over Now
TTITLE3=Butterball Five - I'll Remember
TTITLE4=Belaires - The Bells
TTITLE5=Admirations - Mixture Of Love
TTITLE6=Youngtones - Patricia
TTITLE7=Admirations - Gonna Find My Pretty Baby
TTITLE8=Butterballs - Butterball
TTITLE9=Sonics - It Ain't True
TTITLE10=Youngtones - You I Adore
TTITLE11=Belaires - Where Are You
TTITLE12=Unknowns - You and Me
TTITLE13=Youngtones - Can I Come Over
TTITLE14=Belaires - Tell Me Why
TTITLE15=Youngtones - I Do
TTITLE16=Belmarks - Lil Lil Lulu
TTITLE17=Butterballs - I Won't Tell A Soul
TTITLE18=Belaires - Oh Baby
TTITLE19=Unknowns - One More Chance
TTITLE20=Youngtones - Get Together Again
TTITLE21=Sonics - Once In A Lifetime
TTITLE22=Admirations - Coo Coo Coodle Coo
TTITLE23=Collegians - Heavenly Night
TTITLE24=Belaires - Rosa
TTITLE25=Youngtones - By The Candleglow
TTITLE26=Heartspinners - Oh So Much
EXTD=
EXTT0=
EXTT1=
EXTT2=
EXTT3=
EXTT4=
EXTT5=
EXTT6=
EXTT7=
EXTT8=
EXTT9=
EXTT10=
EXTT11=
EXTT12=
EXTT13=
EXTT14=
EXTT15=
EXTT16=
EXTT17=
EXTT18=
EXTT19=
EXTT20=
EXTT21=
EXTT22=
EXTT23=
EXTT24=
EXTT25=
EXTT26=
PLAYORDER=
